<svg width="0" height="0" class="hidden">
  <symbol id="wheel" enable-background="new 0 0 511.483 511.483" xmlns="http://www.w3.org/2000/svg" viewBox="0 0 511.483 511.483">
    <g>
      <g id="LINES_32_">
        <path d="m255.742 226.483c-1.881 0-3.763.181-5.594.536l2.859 14.725c.892-.173 1.812-.261 2.734-.261 7.861 0 14.257 6.396 14.257 14.259 0 7.861-6.396 14.258-14.257 14.258s-14.258-6.396-14.258-14.258c0-3.351 1.124-6.485 3.251-9.064l-11.572-9.543c-4.307 5.222-6.679 11.83-6.679 18.607 0 16.133 13.125 29.258 29.258 29.258 16.132 0 29.257-13.125 29.257-29.258.001-16.134-13.124-29.259-29.256-29.259z"></path>
        <path d="m501.88 235.204c-6.104-5.099-14.094-7.211-21.92-5.799l-36.635 6.622v12.215h-6.243c-1.814-44.399-19.646-84.734-47.865-115.369l4.47-4.47 8.637 8.637 30.586-21.224c6.535-4.534 10.69-11.679 11.399-19.601.71-7.921-2.107-15.688-7.73-21.312-5.624-5.623-13.396-8.441-21.313-7.731-7.922.71-15.065 4.865-19.6 11.399l-21.224 30.586 8.637 8.637-4.469 4.469c-30.634-28.224-70.968-46.059-115.368-47.873v-6.234h12.214l6.622-36.635c1.414-7.827-.699-15.816-5.799-21.92s-12.585-9.601-20.537-9.601c-7.953 0-15.438 3.5-20.538 9.604s-7.213 14.093-5.799 21.92l6.622 36.635h12.215v6.24c-13.176.541-26.23 2.485-38.901 5.839l-.299.079 3.838 14.5.299-.079c13.82-3.657 28.141-5.512 42.563-5.512 91.812 0 166.507 74.698 166.507 166.516s-74.694 166.517-166.507 166.517-166.508-74.7-166.508-166.518c0-54.523 26.854-105.706 71.836-136.912 3.921-2.72 8.002-5.3 12.131-7.666l-7.461-13.014c-4.5 2.58-8.948 5.392-13.221 8.355-6.96 4.828-13.506 10.11-19.642 15.765l-4.473-4.473 8.637-8.637-21.224-30.586c-4.534-6.534-11.678-10.689-19.6-11.399-7.911-.71-15.689 2.107-21.313 7.731-5.623 5.623-8.44 13.392-7.73 21.312.71 7.922 4.865 15.065 11.399 19.6l30.586 21.224 8.637-8.637 4.474 4.474c-28.885 31.391-46.07 72.197-47.861 115.364h-6.251v-12.215l-36.635-6.622c-7.827-1.415-15.815.699-21.92 5.799-6.103 5.1-9.603 12.585-9.603 20.538 0 7.952 3.5 15.438 9.604 20.537 4.86 4.061 10.917 6.229 17.135 6.229 1.591 0 3.191-.143 4.785-.43l36.635-6.622v-12.214h6.243c1.814 44.399 19.646 84.733 47.865 115.368l-4.47 4.47-8.637-8.637-30.586 21.224c-6.534 4.534-10.689 11.678-11.399 19.599-.71 7.922 2.107 15.69 7.73 21.314 5.053 5.052 11.834 7.839 18.903 7.839.8 0 1.604-.036 2.41-.108 7.921-.71 15.065-4.864 19.6-11.399l21.224-30.586-8.637-8.637 4.469-4.469c30.634 28.224 70.969 46.059 115.369 47.873v6.234h-12.215l-6.622 36.636c-1.414 7.826.699 15.815 5.799 21.919 5.099 6.104 12.585 9.604 20.538 9.604 7.952 0 15.438-3.5 20.537-9.604 5.1-6.104 7.213-14.093 5.799-21.919l-6.622-36.636h-12.214v-6.234c44.4-1.814 84.735-19.649 115.368-47.873l4.469 4.469-8.637 8.637 21.224 30.586c4.534 6.535 11.679 10.689 19.6 11.399.806.072 1.609.108 2.41.108 7.069 0 13.852-2.788 18.903-7.839 5.623-5.624 8.44-13.392 7.73-21.313s-4.864-15.065-11.399-19.6l-30.586-21.224-8.637 8.637-4.47-4.47c28.219-30.634 46.05-70.969 47.865-115.368h6.243v12.214l36.635 6.622c1.595.288 3.194.43 4.785.43 6.218 0 12.274-2.168 17.135-6.229 6.104-5.1 9.604-12.585 9.604-20.537-.002-7.953-3.502-15.438-9.605-20.538zm-93.89-148.08c1.992-2.872 5.133-4.698 8.614-5.01 3.474-.32 6.896.927 9.368 3.398 2.471 2.471 3.709 5.884 3.397 9.365-.312 3.482-2.139 6.622-5.011 8.615l-20.291 14.079-10.157-10.157zm-159.431-33.966-4.392-24.303c-.622-3.439.307-6.951 2.549-9.634 2.241-2.683 5.531-4.222 9.026-4.222s6.784 1.538 9.025 4.221c2.242 2.684 3.171 6.195 2.549 9.635l-4.392 24.303zm-141.144 64.414-20.291-14.079c-2.872-1.992-4.698-5.133-5.01-8.614s.926-6.896 3.397-9.366c2.22-2.221 5.201-3.446 8.309-3.446.352 0 .705.016 1.059.048 3.481.312 6.622 2.138 8.614 5.01l14.079 20.291zm-54.257 145.353-24.303 4.392c-3.439.621-6.951-.307-9.635-2.549-2.683-2.24-4.221-5.53-4.221-9.025s1.538-6.786 4.221-9.027c2.137-1.784 4.799-2.737 7.532-2.737.698 0 1.402.062 2.103.189l24.303 4.392zm50.335 161.434c-1.993 2.872-5.133 4.698-8.615 5.011-3.478.313-6.896-.927-9.366-3.397-2.472-2.472-3.71-5.887-3.397-9.368.312-3.481 2.138-6.622 5.01-8.614l20.291-14.079 10.157 10.157zm163.823 58.27c.622 3.439-.307 6.951-2.548 9.634s-5.531 4.221-9.026 4.221-6.786-1.538-9.027-4.221-3.17-6.194-2.548-9.634l4.392-24.304h14.366zm136.752-88.718 20.291 14.079c2.872 1.993 4.698 5.133 5.011 8.615.312 3.481-.927 6.896-3.398 9.366-2.471 2.472-5.887 3.701-9.366 3.398-3.482-.312-6.622-2.139-8.615-5.011l-14.079-20.291zm88.195-129.143c-2.683 2.241-6.192 3.173-9.635 2.549l-24.303-4.392v-14.366l24.303-4.392c3.435-.624 6.951.307 9.635 2.548 2.683 2.241 4.221 5.532 4.221 9.027s-1.539 6.785-4.221 9.026z"></path>
        <path d="m391.393 255.741c0-74.339-60.853-134.817-135.65-134.817-74.799 0-135.651 60.479-135.651 134.817s60.851 134.819 135.65 134.819c8.527 0 17.066-.796 25.377-2.365v-.001c2.596-.49 5.206-1.063 7.758-1.702l-3.646-14.551c-2.267.568-4.586 1.077-6.895 1.513v.001c-4.96.937-10.013 1.557-15.094 1.868v-57.466c11.645-1.398 22.311-6.003 31.095-12.91l40.871 40.873c-2.008 1.744-4.074 3.437-6.213 5.066l-.001.001c-1.859 1.416-3.79 2.8-5.74 4.112l8.375 12.443c2.192-1.476 4.363-3.03 6.454-4.622 33.879-25.792 53.31-64.82 53.31-107.079zm-15.244-7.5-58.296.001c-1.398-11.646-6.003-22.312-12.909-31.098l40.943-40.946c17.398 19.425 28.54 44.486 30.262 72.043zm-112.907-112.079c27.472 1.682 52.484 12.531 71.966 29.502l-40.87 40.873c-8.785-6.907-19.451-11.512-31.096-12.91zm-15 0v57.465c-11.645 1.398-22.311 6.004-31.096 12.91l-40.871-40.873c19.482-16.971 44.495-27.82 71.967-29.502zm-82.645 40.037 40.943 40.945c-6.906 8.785-11.512 19.452-12.91 31.098l-58.296-.001c1.723-27.556 12.864-52.617 30.263-72.042zm-30.263 87.042 58.296.001c1.398 11.646 6.004 22.312 12.91 31.098l-40.943 40.945c-17.398-19.425-28.54-44.486-30.263-72.044zm112.908 112.08c-27.472-1.682-52.484-12.531-71.967-29.502l40.871-40.873c8.785 6.906 19.451 11.512 31.095 12.91v57.465zm7.5-72c-26.234 0-47.577-21.344-47.577-47.579s21.343-47.58 47.577-47.58c26.233 0 47.576 21.345 47.576 47.58s-21.342 47.579-47.576 47.579zm49.202-8.982c6.906-8.785 11.511-19.452 12.91-31.097l58.302-.001c-1.668 26.991-12.321 52.149-30.245 72.067z"></path>
        <path d="m303.835 381.809c4.869-1.84 9.685-3.986 14.313-6.38l-6.889-13.324c-4.116 2.128-8.398 4.037-12.728 5.673z"></path>
        <path d="m199.21 99.105-5.109-14.104c-4.887 1.771-9.753 3.775-14.465 5.96l6.309 13.609c4.321-2.003 8.784-3.841 13.265-5.465z"></path>
      </g>
    </g>
  </symbol>
  <symbol version="1.1" id="shield" xmlns="http://www.w3.org/2000/svg" xmlns:xlink="http://www.w3.org/1999/xlink" x="0px" y="0px" xml:space="preserve" viewBox="0 0 512 512">
    <g>
      <g>
        <path d="M256,40.01c-5.538,0-9.99,4.46-9.99,9.99c0,5.147,3.872,9.43,8.99,9.938c5.925,0.588,10.99-4.027,10.99-9.938
			C265.99,44.462,261.53,40.01,256,40.01z"></path>
      </g>
    </g>
    <g>
      <g>
        <path d="M456,60c-27.57,0-50-22.43-50-50c0-5.522-4.478-10-10-10H116c-5.522,0-10,4.478-10,10c0,27.57-22.43,50-50,50
			c-5.522,0-10,4.478-10,10v163.19c0,127.177,82.895,241.135,207.128,278.389c0.937,0.28,1.904,0.421,2.872,0.421
			c0.968,0,1.937-0.141,2.873-0.422C380.415,475.119,466,363.149,466,233.19V70C466,64.478,461.522,60,456,60z M446,233.19
			c0,119.448-76.221,222.892-190,258.353C143.128,456.365,66,351.984,66,233.19V79.288C96.611,74.89,120.89,50.611,125.288,20
			h261.424C391.11,50.611,415.389,74.89,446,79.288V233.19z"></path>
      </g>
    </g>
    <g>
      <g>
        <path d="M420.012,92.49c-20.854-9.133-37.369-25.648-46.502-46.502C371.916,42.35,368.322,40,364.35,40h-68.37
			c-5.522,0-10,4.478-10,10s4.478,10,10,10h62.047c10.565,20.681,27.292,37.407,47.973,47.973V233.19
			c0,97.863-58.749,182.303-150,216.104c-91.251-33.802-150-118.241-150-216.104V107.973C126.681,97.407,143.407,80.681,153.973,60
			h62.047c5.522,0,10-4.478,10-10s-4.478-10-10-10h-68.37c-3.972,0-7.566,2.351-9.16,5.988
			c-9.133,20.854-25.648,37.369-46.502,46.502C88.351,94.084,86,97.679,86,101.65v131.54c0,107.213,66.311,200.653,166.664,236.166
			c1.079,0.382,2.207,0.573,3.336,0.573c1.129,0,2.257-0.191,3.336-0.573C359.605,433.873,426,340.49,426,233.19V101.65
			C426,97.678,423.649,94.084,420.012,92.49z"></path>
      </g>
    </g>
    <g>
      <g>
        <path d="M256,146c-49.626,0-90,40.374-90,90c0,49.626,40.374,90,90,90c49.626,0,90-40.374,90-90C346,186.374,305.626,146,256,146z
			 M256,306c-38.598,0-70-31.402-70-70c0-38.598,31.402-70,70-70c38.598,0,70,31.402,70,70C326,274.598,294.598,306,256,306z"></path>
      </g>
    </g>
    <g>
      <g>
        <path d="M303.071,208.928c-3.906-3.904-10.236-3.904-14.143,0L246,251.857l-12.929-12.928c-3.906-3.904-10.236-3.904-14.143,0
			c-3.905,3.905-3.905,10.237,0,14.143l20,20C240.882,275.023,243.44,276,246,276s5.118-0.977,7.071-2.929l50-50
			C306.976,219.166,306.976,212.834,303.071,208.928z"></path>
      </g>
    </g>
    <g></g>
    <g></g>
    <g></g>
    <g></g>
    <g></g>
    <g></g>
    <g></g>
    <g></g>
    <g></g>
    <g></g>
    <g></g>
    <g></g>
    <g></g>
    <g></g>
    <g></g>
  </symbol>
  <symbol version="1.1" id="driver-license" xmlns="http://www.w3.org/2000/svg" xmlns:xlink="http://www.w3.org/1999/xlink" x="0px" y="0px" xml:space="preserve" viewBox="0 0 512 512">
    <g id="Driver_License-Id-License-Transport-Identification">
      <path d="M120,232h16v16h-16V232z"></path>
      <path d="M168,232h16v16h-16V232z"></path>
      <path d="M464,56H48C25.9,56,8,73.9,8,96v304c0,22.1,17.9,40,40,40h416c22.1,0,40-17.9,40-40V96C504,73.9,486.1,56,464,56z M488,400
		c0,13.2-10.8,24-24,24H48c-13.2,0-24-10.8-24-24V120h464V400z M488,104H24v-8c0-13.2,10.8-24,24-24h416c13.2,0,24,10.8,24,24V104z"></path>
      <path d="M222.8,332.1L184,314.8v-11.4c14.8-8.6,25.6-22.8,29.9-39.4h2.1c13.3,0,24-10.7,24-24s-10.7-24-24-24v-16
		c0-35.3-28.7-64-64-64s-64,28.7-64,64v16c-13.3,0-24,10.7-24,24s10.7,24,24,24h2.1c4.3,16.6,15.1,30.7,29.9,39.4v11.4l-38.8,17.3
		c-20.2,9-33.2,29-33.2,51.1V400c0,4.4,3.6,8,8,8h192c4.4,0,8-3.6,8-8v-16.8C256,361.1,243,341.1,222.8,332.1z M216,232
		c4.4,0,8,3.6,8,8s-3.6,8-8,8V232z M88,248c-4.4,0-8-3.6-8-8s3.6-8,8-8V248z M188.2,334.2l-1.9,7.5l-12.6-4.2l-3-5.8l5.4-2.7
		L188.2,334.2z M104,200c0-26.5,21.5-48,48-48s48,21.5,48,48v7.8c-6.2-1.1-11.2-5.7-12.8-11.8l-3.4-13.8c-1.1-4.3-5.4-6.9-9.7-5.8
		c-3.6,0.9-6,4.1-6.1,7.7c0,13.2-10.8,24-24,24h-40L104,200z M104,248v-24h40c12.3,0,23.8-5.6,31.4-15.3
		c5.3,8.7,14.4,14.3,24.6,15.1V248c0,26.5-21.5,48-48,48S104,274.5,104,248z M127.8,328.9l5.4,2.7l-3,5.8l-12.6,4.2l-1.9-7.5
		L127.8,328.9z M122,392H64v-8.8c0-15.8,9.3-30.1,23.8-36.6l13.2-5.8l3.3,13.1c0.5,2.2,2,4,3.9,5.1c1.2,0.6,2.5,1,3.8,1
		c0.9,0,1.7-0.2,2.6-0.4l18.9-6.3L122,392z M138.7,392l7.7-26.3c3.1,3.1,8.1,3.1,11.2,0l7.7,26.3H138.7z M145.8,342.4l3.2-6.4h6.1
		l3.2,6.4l-6.2,6.3L145.8,342.4z M168,315l-9.9,5h-12.2l-9.9-5v-5.1c10.5,2.8,21.5,2.8,32,0V315z M240,392h-58l-11.4-38.7l18.9,6.3
		c0.8,0.2,1.7,0.4,2.6,0.4c1.3,0,2.7-0.3,3.8-1c2-1.1,3.4-2.9,3.9-5.1l3.3-13.1l13.2,5.8c14.4,6.4,23.8,20.7,23.8,36.6L240,392z"></path>
      <path d="M272,144h32v16h-32V144z"></path>
      <path d="M336,144h16v16h-16V144z"></path>
      <path d="M368,144h16v16h-16V144z"></path>
      <path d="M400,144h16v16h-16V144z"></path>
      <path d="M432,144h16v16h-16V144z"></path>
      <path d="M272,248h48v16h-48V248z"></path>
      <path d="M336,216h32v16h-32V216z"></path>
      <path d="M384,216h64v16h-64V216z"></path>
      <path d="M336,248h112v16H336V248z"></path>
      <path d="M336,296h16v16h-16V296z"></path>
      <path d="M368,296h16v16h-16V296z"></path>
      <path d="M400,296h16v16h-16V296z"></path>
      <path d="M432,296h16v16h-16V296z"></path>
      <path d="M336,384h32v16h-32V384z"></path>
      <path d="M384,384h32v16h-32V384z"></path>
      <path d="M432,384h16v16h-16V384z"></path>
    </g>
  </symbol>
  <symbol xmlns="http://www.w3.org/2000/svg" viewBox="0 -32 496 496" id="weather">
    <path d="m447.519531 224.566406c.28125-2.847656.480469-5.695312.480469-8.566406 0-48.519531-39.480469-88-88-88-6.953125 0-13.726562.976562-20.304688 2.535156-6.449218-15.558594-19.550781-27.390625-35.742187-32.175781.03125-.800781.046875-1.582031.046875-2.359375 0-35.289062-28.710938-64-64-64-11.0625 0-21.480469 2.824219-30.566406 7.792969-16.195313-24.671875-43.523438-39.792969-73.433594-39.792969-48.519531 0-88 39.480469-88 88 0 2.871094.199219 5.71875.480469 8.566406-27.328125 3.699219-48.480469 27.113282-48.480469 55.433594 0 30.871094 25.121094 56 56 56h138.105469c-1.328125 5.128906-2.105469 10.464844-2.105469 16 0 .785156.015625 1.566406.054688 2.375-23.292969 6.960938-40.054688 28.800781-40.054688 53.625 0 30.871094 25.121094 56 56 56h.265625c-.167969 1.3125-.265625 2.640625-.265625 4 0 15.441406 12.558594 28 28 28s28-12.558594 28-28v-4h120.265625c-.167969 1.3125-.265625 2.640625-.265625 4 0 15.441406 12.558594 28 28 28s28-12.558594 28-28v-4c30.878906 0 56-25.128906 56-56 0-28.320312-21.152344-51.734375-48.480469-55.433594zm-391.519531-32.566406c-22.054688 0-40-17.945312-40-40s17.945312-40 40-40 40 17.945312 40 40h16c0-27.960938-20.625-51.136719-47.441406-55.273438-.351563-2.886718-.558594-5.796874-.558594-8.726562 0-39.703125 32.304688-72 72-72 24.726562 0 47.289062 12.640625 60.488281 33.207031-12.566406 11.6875-20.488281 28.3125-20.488281 46.792969h16c0-26.472656 21.527344-48 48-48s48 21.527344 48 48c0 2.246094-.199219 4.59375-.640625 7.382812l-1.230469 7.929688 7.933594 1.199219c13.5625 2.074219 24.832031 10.847656 30.328125 23.007812-15.300781 6.761719-28.414063 17.914063-37.832031 32.265625-9.078125-4.960937-19.496094-7.785156-30.558594-7.785156-23.625 0-44.257812 12.902344-55.34375 32zm192 148c0 6.617188-5.382812 12-12 12s-12-5.382812-12-12.679688c0-4.183593 2.230469-8.136718 5.832031-10.289062l18.167969-10.902344zm176 0c0 6.617188-5.382812 12-12 12s-12-5.382812-12-12.679688c0-4.183593 2.230469-8.136718 5.832031-10.289062l18.167969-10.902344zm16-20v-30.128906l-42.40625 25.441406c-2.160156 1.296875-4.105469 2.886719-5.808594 4.6875h-127.785156v-30.128906l-42.40625 25.441406c-2.160156 1.296875-4.105469 2.886719-5.808594 4.6875h-7.785156c-22.054688 0-40-17.945312-40-40 0-19.558594 14.59375-36.535156 33.9375-39.488281l7.933594-1.199219-1.230469-7.929688c-.441406-2.789062-.640625-5.136718-.640625-7.382812 0-26.472656 21.527344-48 48-48s48 21.527344 48 48h16c0-18.480469-7.921875-35.105469-20.488281-46.792969 13.199219-20.566406 35.761719-33.207031 60.488281-33.207031 39.695312 0 72 32.296875 72 72 0 2.929688-.207031 5.839844-.558594 8.726562-26.816406 4.136719-47.441406 27.3125-47.441406 55.273438h16c0-22.054688 17.945312-40 40-40s40 17.945312 40 40-17.945312 40-40 40zm0 0"></path>
    <path d="m272 404c0 15.441406 12.558594 28 28 28s28-12.558594 28-28v-50.128906l-42.40625 25.441406c-8.386719 5.039062-13.59375 14.230469-13.59375 24.6875zm21.832031-10.96875 18.167969-10.902344v21.871094c0 6.617188-5.382812 12-12 12s-12-5.382812-12-12.679688c0-4.183593 2.230469-8.136718 5.832031-10.289062zm0 0"></path>
    <path d="m0 268c0 15.441406 12.558594 28 28 28s28-12.558594 28-28v-50.128906l-42.40625 25.441406c-8.386719 5.039062-13.59375 14.230469-13.59375 24.6875zm21.832031-10.96875 18.167969-10.902344v21.871094c0 6.617188-5.382812 12-12 12s-12-5.382812-12-12.679688c0-4.183593 2.230469-8.136718 5.832031-10.289062zm0 0"></path>
    <path d="m64 364c0 15.441406 12.558594 28 28 28s28-12.558594 28-28v-50.128906l-42.40625 25.441406c-8.386719 5.039062-13.59375 14.230469-13.59375 24.6875zm21.832031-10.96875 18.167969-10.902344v21.871094c0 6.617188-5.382812 12-12 12s-12-5.382812-12-12.679688c0-4.183593 2.230469-8.136718 5.832031-10.289062zm0 0"></path>
  </symbol>
  <symbol version="1.1" id="boat" xmlns="http://www.w3.org/2000/svg" xmlns:xlink="http://www.w3.org/1999/xlink" x="0px" y="0px" xml:space="preserve" viewBox="0 0 511.998 511.998">
    <g>
      <g>
        <path d="M510.652,230.062c-1.357-2.116-3.567-3.524-6.05-3.857l-128-17.067c-4.617-0.606-8.96,2.662-9.591,7.33
			c-0.631,4.668,2.662,8.969,7.33,9.591l18.193,2.423v21.675l-42.667-4.574v-42.47l15.633-23.45c1.707-2.56,1.903-5.837,0.521-8.576
			c-1.391-2.748-4.147-4.54-7.219-4.685l-179.2-8.533c-2.876-0.026-5.666,1.212-7.347,3.567l-42.667,59.733
			c-0.171,0.239-0.205,0.529-0.35,0.777L9.438,209.113c-2.423-0.256-4.813,0.521-6.613,2.133C1.033,212.868,0,215.172,0,217.595
			c0,75.281,88.047,136.533,196.267,136.533h273.067c3.746,0,7.057-2.441,8.158-6.025l34.133-110.933
			C512.358,234.773,512,232.17,510.652,230.062z M409.6,251.728v-20.975l34.133,4.548v20.335l-34.185-3.661
			C409.549,251.891,409.6,251.814,409.6,251.728z M264.047,178.982l78.899,3.755l-8.713,13.056c-0.93,1.399-1.434,3.055-1.434,4.736
			v43.23l-76.834-8.235L264.047,178.982z M183.441,175.142l63.479,3.021l-7.902,55.287c-0.009,0.085,0.026,0.171,0.017,0.256
			l-90.505-9.694L183.441,175.142z M463.027,337.062H196.267c-75.418,0-140.015-31.258-166.417-75.332l441.267,49.033
			L463.027,337.062z M476.228,294.165L21.564,243.647c-1.809-5.385-3.26-10.863-3.925-16.486l463.915,49.698L476.228,294.165z
			 M486.665,260.245l-25.865-2.773V237.58l31.548,4.207L486.665,260.245z"></path>
      </g>
    </g>
    <g></g>
    <g></g>
    <g></g>
    <g></g>
    <g></g>
    <g></g>
    <g></g>
    <g></g>
    <g></g>
    <g></g>
    <g></g>
    <g></g>
    <g></g>
    <g></g>
    <g></g>
  </symbol>
  <symbol version="1.1" id="right-chevron" xmlns="http://www.w3.org/2000/svg" xmlns:xlink="http://www.w3.org/1999/xlink" x="0px" y="0px" xml:space="preserve" viewBox="0 0 256 256">
    <g>
      <g>
        <polygon points="79.093,0 48.907,30.187 146.72,128 48.907,225.813 79.093,256 207.093,128 		"></polygon>
      </g>
    </g>
    <g></g>
    <g></g>
    <g></g>
    <g></g>
    <g></g>
    <g></g>
    <g></g>
    <g></g>
    <g></g>
    <g></g>
    <g></g>
    <g></g>
    <g></g>
    <g></g>
    <g></g>
  </symbol>
  <symbol version="1.1" id="instagram" xmlns="http://www.w3.org/2000/svg" xmlns:xlink="http://www.w3.org/1999/xlink" x="0px" y="0px" xml:space="preserve" viewBox="0 0 512 512">
    <g>
      <g>
        <path d="M363.273,0H148.728C66.719,0,0,66.719,0,148.728v214.544C0,445.281,66.719,512,148.728,512h214.544
			C445.281,512,512,445.281,512,363.273V148.728C512,66.719,445.281,0,363.273,0z M472,363.272C472,423.225,423.225,472,363.273,472
			H148.728C88.775,472,40,423.225,40,363.273V148.728C40,88.775,88.775,40,148.728,40h214.544C423.225,40,472,88.775,472,148.728
			V363.272z"></path>
      </g>
    </g>
    <g>
      <g>
        <path d="M256,118c-76.094,0-138,61.906-138,138s61.906,138,138,138s138-61.906,138-138S332.094,118,256,118z M256,354
			c-54.037,0-98-43.963-98-98s43.963-98,98-98s98,43.963,98,98S310.037,354,256,354z"></path>
      </g>
    </g>
    <g>
      <g>
        <circle cx="396" cy="116" r="20"></circle>
      </g>
    </g>
    <g></g>
    <g></g>
    <g></g>
    <g></g>
    <g></g>
    <g></g>
    <g></g>
    <g></g>
    <g></g>
    <g></g>
    <g></g>
    <g></g>
    <g></g>
    <g></g>
    <g></g>
  </symbol>
  <symbol version="1.1" id="logo" xmlns="http://www.w3.org/2000/svg" xmlns:xlink="http://www.w3.org/1999/xlink" x="0px" y="0px" xml:space="preserve" viewBox="0 0 512 512">
    <g>
      <g>
        <path d="M509.821,467.046c-3.44-4.319-9.731-5.032-14.049-1.592c-10.778,8.585-25.844,8.599-36.646,0.028l-0.149-0.119
			c-18.125-14.383-43.426-14.36-61.525,0.056c-10.784,8.589-25.839,8.601-36.634,0.038c-0.017-0.014-0.033-0.027-0.05-0.04
			c-18.099-14.414-43.398-14.438-61.528-0.049l-0.193,0.153c-10.772,8.551-25.823,8.551-36.597,0.002l-0.202-0.161
			c-18.127-14.384-43.425-14.359-61.566,0.088c-10.779,8.586-25.846,8.598-36.645,0.028l-0.189-0.15
			c-18.098-14.364-43.375-14.362-61.472,0.007l-0.187,0.148c-10.795,8.571-25.866,8.559-36.608,0.003
			c-0.014-0.011-0.066-0.053-0.08-0.064c-18.103-14.419-43.402-14.441-61.536-0.051l-0.19,0.151
			c-4.322,3.436-5.04,9.724-1.604,14.047c3.436,4.321,9.723,5.042,14.047,1.605l0.185-0.146c10.793-8.566,25.862-8.554,36.602,0.002
			c0.014,0.011,0.066,0.054,0.08,0.064c18.106,14.422,43.412,14.443,61.541,0.047l0.187-0.148
			c10.776-8.558,25.831-8.557,36.611-0.001l0.189,0.15c18.127,14.389,43.428,14.366,61.57-0.084
			c10.778-8.584,25.844-8.597,36.638-0.034l0.202,0.161c9.045,7.179,19.883,10.767,30.725,10.767
			c10.842-0.001,21.688-3.592,30.735-10.773l0.193-0.153c10.777-8.554,25.817-8.555,36.594-0.004
			c0.016,0.013,0.032,0.026,0.048,0.039c18.133,14.441,43.46,14.44,61.592-0.002c10.779-8.585,25.844-8.598,36.647-0.027
			l0.149,0.118c18.124,14.382,43.422,14.361,61.524-0.056C512.548,477.654,513.26,471.365,509.821,467.046z"></path>
      </g>
    </g>
    <g>
      <g>
        <path d="M119.616,352.882c-1.859-1.869-4.429-2.929-7.068-2.929c-2.629,0-5.208,1.06-7.068,2.929
			c-1.859,1.859-2.929,4.439-2.929,7.068c0,2.629,1.071,5.208,2.929,7.068c1.859,1.859,4.439,2.929,7.068,2.929
			c2.639,0,5.208-1.07,7.068-2.929c1.859-1.859,2.929-4.439,2.929-7.068C122.545,357.321,121.474,354.742,119.616,352.882z"></path>
      </g>
    </g>
    <g>
      <g>
        <path d="M70.518,430.218l-0.14-0.116c-19.685-16.312-35.255-36.913-45.568-60.158h41.711c5.52,0,9.997-4.476,9.997-9.997
			s-4.477-9.997-9.997-9.997H10.149c-3.231,0-6.262,1.562-8.139,4.191c-1.876,2.63-2.365,6.004-1.315,9.059
			c11.061,32.147,30.745,60.605,56.918,82.294l0.135,0.112c1.866,1.55,4.129,2.304,6.378,2.304c2.872,0,5.722-1.232,7.701-3.615
			C75.353,440.046,74.766,433.743,70.518,430.218z"></path>
      </g>
    </g>
    <g>
      <g>
        <path d="M510.141,354.141c-1.876-2.629-4.908-4.191-8.139-4.191h-235.93V30.045c0-5.521-4.477-9.997-9.997-9.997
			c-5.52,0-9.997,4.476-9.997,9.997V349.95h-92.473c-5.52,0-9.997,4.476-9.997,9.997s4.477,9.997,9.997,9.997h333.736
			c-10.313,23.245-25.883,43.847-45.572,60.162l-0.135,0.112c-4.249,3.525-4.836,9.828-1.311,14.077
			c1.978,2.383,4.828,3.614,7.7,3.614c2.249,0,4.512-0.756,6.378-2.304l0.13-0.107c26.179-21.693,45.862-50.151,56.923-82.299
			C512.507,360.145,512.018,356.771,510.141,354.141z"></path>
      </g>
    </g>
    <g>
      <g>
        <path d="M303.132,158.31c-1.858-1.859-4.438-2.929-7.067-2.929c-2.629,0-5.208,1.07-7.068,2.929
			c-1.86,1.859-2.929,4.439-2.929,7.068c0,2.629,1.07,5.208,2.929,7.068s4.439,2.929,7.068,2.929c2.629,0,5.208-1.07,7.067-2.929
			c1.86-1.859,2.93-4.439,2.93-7.068C306.062,162.749,304.991,160.169,303.132,158.31z"></path>
      </g>
    </g>
    <g>
      <g>
        <path d="M419.938,156.19c-24.91-49.293-61.579-92.664-106.044-125.424l-11.9-8.768c-3.037-2.238-7.075-2.574-10.438-0.875
			c-3.366,1.701-5.488,5.151-5.488,8.922v92.43c0,5.521,4.477,9.997,9.997,9.997s9.997-4.476,9.997-9.997V49.876
			c80.071,60.897,128.77,155.68,131.81,256.088H306.062V200.433c0-5.521-4.477-9.997-9.997-9.997c-5.52,0-9.997,4.476-9.997,9.997
			V315.96c0,2.651,1.054,5.194,2.928,7.069c1.875,1.874,4.418,2.928,7.069,2.928h151.953c5.52,0,9.997-4.476,9.997-9.997
			C458.015,260.73,444.847,205.483,419.938,156.19z"></path>
      </g>
    </g>
    <g>
      <g>
        <path d="M218.504,70.857c-4.459-1.112-9.092,0.959-11.246,5.013L82.295,311.272c-1.643,3.098-1.545,6.833,0.263,9.839
			c1.807,3.007,5.06,4.846,8.567,4.846h124.963c5.52,0,9.997-4.476,9.997-9.997V80.558
			C226.085,75.966,222.958,71.965,218.504,70.857z M206.091,305.963H107.75l98.341-185.251V305.963z"></path>
      </g>
    </g>
    <g></g>
    <g></g>
    <g></g>
    <g></g>
    <g></g>
    <g></g>
    <g></g>
    <g></g>
    <g></g>
    <g></g>
    <g></g>
    <g></g>
    <g></g>
    <g></g>
    <g></g>
  </symbol>
  <symbol xmlns="http://www.w3.org/2000/svg" viewBox="0 0 469.33333 469.33333" id="plus">
    <path d="m437.332031 192h-160v-160c0-17.664062-14.335937-32-32-32h-21.332031c-17.664062 0-32 14.335938-32 32v160h-160c-17.664062 0-32 14.335938-32 32v21.332031c0 17.664063 14.335938 32 32 32h160v160c0 17.664063 14.335938 32 32 32h21.332031c17.664063 0 32-14.335937 32-32v-160h160c17.664063 0 32-14.335937 32-32v-21.332031c0-17.664062-14.335937-32-32-32zm0 0"></path>
  </symbol>
</svg>